<?xml version="1.0" standalone="no"?>
<!DOCTYPE svg PUBLIC "-//W3C//DTD SVG 20010904//EN"
 "http://www.w3.org/TR/2001/REC-SVG-20010904/DTD/svg10.dtd">
<svg version="1.0" xmlns="http://www.w3.org/2000/svg"
 width="500.000000pt" height="500.000000pt" viewBox="0 0 500.000000 500.000000"
 preserveAspectRatio="xMidYMid meet">

<g transform="translate(0.000000,500.000000) scale(0.100000,-0.100000)"
fill="#000000" stroke="none">
<path d="M1672 2950 c-100 -61 -96 -207 8 -261 100 -54 220 18 220 131 0 85
-65 150 -150 150 -27 0 -58 -8 -78 -20z"/>
<path d="M2120 2822 c-173 -173 -194 -207 -194 -307 0 -153 102 -255 256 -255
62 0 80 4 124 30 96 55 130 125 82 170 -33 31 -67 25 -122 -20 -65 -54 -113
-55 -162 -6 -29 29 -34 41 -34 81 l0 48 150 152 c129 130 150 156 150 183 0
39 -33 72 -73 72 -25 0 -54 -24 -177 -148z"/>
<path d="M2880 2743 c-60 -22 -67 -84 -16 -141 42 -46 52 -80 36 -127 -20 -61
-97 -93 -153 -64 -12 6 -86 74 -164 152 -120 119 -146 140 -172 140 -42 0 -71
-28 -71 -70 0 -31 15 -49 151 -184 83 -82 169 -159 191 -170 52 -26 155 -28
216 -4 52 21 124 99 140 153 30 98 9 193 -58 263 -45 48 -72 62 -100 52z"/>
<path d="M1804 2329 c-42 -12 -91 -69 -100 -115 -9 -51 21 -122 66 -152 29
-20 44 -23 93 -20 51 4 63 9 94 40 31 31 37 45 40 90 5 72 -18 116 -77 146
-47 24 -67 25 -116 11z"/>
<path d="M3058 2322 c-98 -46 -117 -171 -37 -248 27 -26 37 -29 97 -29 51 0
73 5 94 20 59 45 77 145 36 205 -45 65 -119 85 -190 52z"/>
<path d="M2420 2218 c-137 -70 -99 -268 55 -286 32 -3 53 1 83 18 172 97 38
358 -138 268z"/>
<path d="M1562 1514 c-26 -18 -29 -56 -7 -78 9 -9 34 -20 56 -26 33 -9 40 -15
37 -33 -4 -28 -40 -34 -72 -13 -24 15 -36 12 -36 -9 0 -16 44 -35 80 -35 17 0
39 9 50 20 39 39 20 81 -45 102 -29 10 -40 19 -40 33 0 17 7 20 40 21 58 1 62
3 41 19 -26 19 -76 19 -104 -1z"/>
<path d="M1730 1495 c0 -8 -4 -15 -10 -15 -5 0 -10 -7 -10 -15 0 -8 4 -15 9
-15 5 0 11 -25 13 -56 5 -58 16 -74 55 -74 32 0 38 19 9 30 -23 8 -26 15 -26
55 0 38 3 45 20 45 11 0 20 7 20 15 0 8 -9 15 -20 15 -11 0 -20 7 -20 15 0 8
-9 15 -20 15 -11 0 -20 -7 -20 -15z"/>
<path d="M1850 1412 c0 -40 5 -73 12 -80 16 -16 50 -15 67 1 11 10 14 10 18 0
3 -7 11 -13 19 -13 11 0 14 18 14 80 0 63 -3 80 -15 80 -10 0 -15 -15 -17 -56
-3 -60 -20 -83 -52 -71 -12 5 -16 20 -16 67 0 47 -3 60 -15 60 -12 0 -15 -14
-15 -68z"/>
<path d="M3092 1470 c-46 -19 -52 -105 -9 -135 30 -21 70 -19 91 4 17 19 16
19 -30 18 -39 -2 -49 1 -52 16 -3 14 4 17 47 17 47 0 51 2 51 23 0 48 -50 77
-98 57z m66 -42 c3 -15 -4 -18 -32 -18 -34 0 -47 15 -29 34 13 13 58 1 61 -16z"/>
<path d="M3373 1470 c-16 -6 -23 -18 -23 -35 0 -22 8 -30 40 -42 54 -21 54
-46 0 -41 -46 4 -57 -12 -17 -26 38 -14 81 3 85 32 5 30 -11 48 -48 56 -43 8
-41 39 2 34 37 -4 50 17 16 26 -28 7 -27 7 -55 -4z"/>
<path d="M3230 1395 c0 -68 2 -75 20 -75 16 0 19 8 22 58 3 48 7 59 26 67 27
12 29 25 2 25 -11 0 -20 -5 -20 -12 0 -9 -3 -9 -12 0 -29 29 -38 13 -38 -63z"/>
</g>
</svg>
